<svg xmlns="http://www.w3.org/2000/svg" width="34.633" height="34.633" viewBox="0 0 34.633 34.633">
  <path id="Icon_awesome-phone-alt" data-name="Icon awesome-phone-alt" d="M.8,19.786l6.125-2.625a1.313,1.313,0,0,1,1.531.377l2.713,3.314a20.271,20.271,0,0,0,9.69-9.69L17.544,8.45a1.309,1.309,0,0,1-.377-1.531L19.791.794a1.321,1.321,0,0,1,1.5-.76l5.688,1.313A1.313,1.313,0,0,1,28,2.625,25.373,25.373,0,0,1,2.625,28a1.313,1.313,0,0,1-1.28-1.017L.032,21.3A1.328,1.328,0,0,1,.8,19.786Z" transform="translate(0 7.717) rotate(-16)" fill="#fff"/>
</svg>
